<svg xmlns="http://www.w3.org/2000/svg" viewBox="0 0 525.72 67.49">
  <defs>
    <style>
      .white {
        fill: #000;
      }

      .blue {
        fill: #008ecf;
      }
    </style>
  </defs>
  <title>LR Blog</title>
  <g id="a5e68b30-caf6-464c-b56c-3c0816cf44c0" data-name="Layer 2">
    <g id="e4a9dd66-259b-40d0-b0eb-786870875ade" data-name="elements">
      <g>
        <rect
          class="white"
          x="352.93"
          y="12.24"
          width="1.46"
          height="55.19"
        ></rect>
        <g>
          <g>
            <path
              class="white"
              d="M383.42,32.37v-20h12.83v3.09h-9.2v4.93h8.19v3h-8.19v5.86h9.89v3.08Z"
            ></path>
            <path
              class="white"
              d="M398.7,17.78a25.38,25.38,0,0,1,2.63-.55A22.82,22.82,0,0,1,404.9,17a8.18,8.18,0,0,1,3.09.51,4.92,4.92,0,0,1,2,1.41,5.43,5.43,0,0,1,1,2.19,12.45,12.45,0,0,1,.3,2.82v8.47h-3.49V24.44a11.12,11.12,0,0,0-.16-2.06,3.49,3.49,0,0,0-.51-1.38,2,2,0,0,0-1-.78,4.24,4.24,0,0,0-1.52-.25,11.14,11.14,0,0,0-1.38.09l-1.07.14V32.37H398.7Z"
            ></path>
            <path
              class="white"
              d="M426.59,30.84q0,3.61-1.84,5.28c-1.22,1.12-3.09,1.67-5.6,1.67a14.91,14.91,0,0,1-2.7-.23,14.5,14.5,0,0,1-2.38-.6l.63-3a10.69,10.69,0,0,0,2,.6,12,12,0,0,0,2.46.23,4.2,4.2,0,0,0,3-.86,3.41,3.41,0,0,0,.9-2.57v-.57a9.64,9.64,0,0,1-1.37.51,6.48,6.48,0,0,1-2,.26,7.25,7.25,0,0,1-2.64-.46,5.52,5.52,0,0,1-2.05-1.35,6.19,6.19,0,0,1-1.32-2.24,9.13,9.13,0,0,1-.48-3.1,8.66,8.66,0,0,1,.51-3,6.26,6.26,0,0,1,1.47-2.37,6.74,6.74,0,0,1,2.35-1.53,8.58,8.58,0,0,1,3.14-.55,19.66,19.66,0,0,1,3.23.26c1,.18,1.88.36,2.6.55Zm-9.72-6.4a4.64,4.64,0,0,0,1,3.25,3.3,3.3,0,0,0,2.5,1,5.32,5.32,0,0,0,1.57-.23,4.48,4.48,0,0,0,1.2-.55V20.12c-.25-.06-.56-.11-.93-.16a10.49,10.49,0,0,0-1.38-.07,3.52,3.52,0,0,0-2.91,1.25A5.08,5.08,0,0,0,416.87,24.44Z"
            ></path>
            <path
              class="white"
              d="M433.48,12.88a2,2,0,0,1-.64,1.56,2.16,2.16,0,0,1-1.5.57,2.19,2.19,0,0,1-1.52-.57,2,2,0,0,1-.64-1.56,2,2,0,0,1,.64-1.59,2.19,2.19,0,0,1,1.52-.57,2.16,2.16,0,0,1,1.5.57A2,2,0,0,1,433.48,12.88Zm-.38,19.49h-3.49V17.29h3.49Z"
            ></path>
            <path
              class="white"
              d="M435.76,17.78a25.11,25.11,0,0,1,2.62-.55A23,23,0,0,1,442,17a8.18,8.18,0,0,1,3.09.51,4.88,4.88,0,0,1,2,1.41,5.42,5.42,0,0,1,1,2.19,11.89,11.89,0,0,1,.31,2.82v8.47h-3.49V24.44a12.05,12.05,0,0,0-.16-2.06,3.65,3.65,0,0,0-.52-1.38,2,2,0,0,0-1-.78A4.18,4.18,0,0,0,441.7,20a11.17,11.17,0,0,0-1.39.09l-1.07.14V32.37h-3.48Z"
            ></path>
            <path
              class="white"
              d="M450.09,24.9a9.33,9.33,0,0,1,.59-3.48,7.31,7.31,0,0,1,1.57-2.5,6.53,6.53,0,0,1,2.25-1.5,7.06,7.06,0,0,1,2.59-.5A6.2,6.2,0,0,1,462,18.85q1.76,1.93,1.75,5.77c0,.19,0,.4,0,.65s0,.45,0,.64h-9.95A4,4,0,0,0,455,28.73a4.9,4.9,0,0,0,3.31,1,11.12,11.12,0,0,0,2.32-.23,9.74,9.74,0,0,0,1.66-.49l.46,2.85a5.87,5.87,0,0,1-.8.31c-.33.1-.72.2-1.15.29s-.9.15-1.4.21a12.83,12.83,0,0,1-1.53.09,9.35,9.35,0,0,1-3.46-.59A6.47,6.47,0,0,1,452,30.51,6.83,6.83,0,0,1,450.55,28,10,10,0,0,1,450.09,24.9Zm10.12-1.55A4.73,4.73,0,0,0,460,22a3.67,3.67,0,0,0-.59-1.13,3,3,0,0,0-1-.75,3,3,0,0,0-1.34-.27,3.12,3.12,0,0,0-1.41.3,3.21,3.21,0,0,0-1,.79,3.62,3.62,0,0,0-.65,1.13,5.88,5.88,0,0,0-.32,1.3Z"
            ></path>
            <path
              class="white"
              d="M465.11,24.9a9.54,9.54,0,0,1,.59-3.48,7.31,7.31,0,0,1,1.57-2.5,6.73,6.73,0,0,1,2.25-1.5,7.11,7.11,0,0,1,2.6-.5A6.23,6.23,0,0,1,477,18.85q1.74,1.93,1.74,5.77c0,.19,0,.4,0,.65s0,.45,0,.64h-10A4,4,0,0,0,470,28.73a4.89,4.89,0,0,0,3.3,1,11.05,11.05,0,0,0,2.32-.23,9.47,9.47,0,0,0,1.66-.49l.46,2.85a5.67,5.67,0,0,1-.79.31c-.34.1-.72.2-1.16.29s-.9.15-1.39.21a12.83,12.83,0,0,1-1.53.09,9.31,9.31,0,0,1-3.46-.59A6.51,6.51,0,0,1,467,30.51,6.83,6.83,0,0,1,465.57,28,10,10,0,0,1,465.11,24.9Zm10.12-1.55A4.73,4.73,0,0,0,475,22a3.47,3.47,0,0,0-.59-1.13,3,3,0,0,0-.95-.75,3.08,3.08,0,0,0-1.34-.27,3.19,3.19,0,0,0-1.42.3,3.33,3.33,0,0,0-1,.79,3.62,3.62,0,0,0-.65,1.13,6.5,6.5,0,0,0-.32,1.3Z"
            ></path>
            <path
              class="white"
              d="M489.56,20.43c-.29-.09-.68-.19-1.19-.3a9.25,9.25,0,0,0-1.78-.16,6.71,6.71,0,0,0-1.22.12,7.19,7.19,0,0,0-.91.2V32.37H481V18a18.88,18.88,0,0,1,2.52-.7,15.79,15.79,0,0,1,3.36-.34c.23,0,.5,0,.81.05l.92.11q.46.07.9.18c.28.06.52.13.69.18Z"
            ></path>
            <path
              class="white"
              d="M495.5,12.88a2,2,0,0,1-.63,1.56,2.16,2.16,0,0,1-1.5.57,2.2,2.2,0,0,1-1.53-.57,2,2,0,0,1-.63-1.56,2.06,2.06,0,0,1,.63-1.59,2.2,2.2,0,0,1,1.53-.57,2.16,2.16,0,0,1,1.5.57A2.06,2.06,0,0,1,495.5,12.88Zm-.37,19.49h-3.49V17.29h3.49Z"
            ></path>
            <path
              class="white"
              d="M497.84,17.78a25.69,25.69,0,0,1,2.62-.55A23.05,23.05,0,0,1,504,17a8.09,8.09,0,0,1,3.08.51,4.88,4.88,0,0,1,2,1.41,5.43,5.43,0,0,1,1,2.19,12.45,12.45,0,0,1,.3,2.82v8.47H507V24.44a11.12,11.12,0,0,0-.16-2.06,3.49,3.49,0,0,0-.52-1.38,2,2,0,0,0-1-.78,4.18,4.18,0,0,0-1.51-.25,11.42,11.42,0,0,0-1.39.09l-1.06.14V32.37h-3.49Z"
            ></path>
            <path
              class="white"
              d="M525.72,30.84q0,3.61-1.83,5.28c-1.22,1.12-3.09,1.67-5.61,1.67a14.87,14.87,0,0,1-2.69-.23,14.5,14.5,0,0,1-2.38-.6l.63-3a10.8,10.8,0,0,0,2,.6,12.06,12.06,0,0,0,2.47.23,4.24,4.24,0,0,0,3-.86,3.4,3.4,0,0,0,.89-2.57v-.57a8.78,8.78,0,0,1-1.37.51,6.37,6.37,0,0,1-1.94.26,7.25,7.25,0,0,1-2.64-.46,5.52,5.52,0,0,1-2-1.35,6.05,6.05,0,0,1-1.32-2.24,9.13,9.13,0,0,1-.48-3.1,8.9,8.9,0,0,1,.5-3,6.51,6.51,0,0,1,1.47-2.37,6.93,6.93,0,0,1,2.35-1.53A8.63,8.63,0,0,1,519.9,17a19.66,19.66,0,0,1,3.23.26c1,.18,1.88.36,2.59.55ZM516,24.44a4.64,4.64,0,0,0,1,3.25,3.29,3.29,0,0,0,2.5,1,5.37,5.37,0,0,0,1.57-.23,4.26,4.26,0,0,0,1.19-.55V20.12c-.25-.06-.55-.11-.92-.16a10.59,10.59,0,0,0-1.38-.07A3.56,3.56,0,0,0,517,21.14,5.14,5.14,0,0,0,516,24.44Z"
            ></path>
          </g>
          <g>
            <path
              class="white"
              d="M389.45,62.22c-1.06,0-2.13,0-3.21-.1a15.3,15.3,0,0,1-2.82-.42V42.29c.42-.07.87-.15,1.35-.21s1-.12,1.47-.16l1.49-.09,1.4,0a19.72,19.72,0,0,1,3.37.28,8.33,8.33,0,0,1,2.7.91A4.67,4.67,0,0,1,397,44.66a4.86,4.86,0,0,1,.64,2.56,4.28,4.28,0,0,1-.68,2.43A4.76,4.76,0,0,1,395,51.26a5.3,5.3,0,0,1,2.68,1.79,4.94,4.94,0,0,1,.87,3,5.24,5.24,0,0,1-2.25,4.63Q394.09,62.23,389.45,62.22ZM387,50.14h2.57a7.48,7.48,0,0,0,3.26-.59A2.16,2.16,0,0,0,394,47.43a2.11,2.11,0,0,0-1.22-2,7.28,7.28,0,0,0-3.19-.61c-.56,0-1,0-1.49,0s-.8.05-1.11.09ZM387,53v6.09l1.3.08,1.27,0a15.05,15.05,0,0,0,2.09-.14,5.56,5.56,0,0,0,1.67-.51,3,3,0,0,0,1.13-1,2.71,2.71,0,0,0,.42-1.56,2.48,2.48,0,0,0-1.24-2.37,7.4,7.4,0,0,0-3.44-.66Z"
            ></path>
            <path
              class="white"
              d="M406,62.28a9.51,9.51,0,0,1-2.58-.35,3.82,3.82,0,0,1-1.63-.91,3.09,3.09,0,0,1-.85-1.47,7.15,7.15,0,0,1-.25-2V40.19h3.49V56.88a4.63,4.63,0,0,0,.1,1.07,1.77,1.77,0,0,0,.36.74,1.65,1.65,0,0,0,.71.46,5.49,5.49,0,0,0,1.14.24Z"
            ></path>
            <path
              class="white"
              d="M421.51,54.43a9.61,9.61,0,0,1-.52,3.26,7,7,0,0,1-1.47,2.51,6.71,6.71,0,0,1-2.29,1.62,7.51,7.51,0,0,1-3,.57,7.41,7.41,0,0,1-2.94-.57,6.87,6.87,0,0,1-2.28-1.62,7.35,7.35,0,0,1-1.48-2.51,9.37,9.37,0,0,1-.54-3.26,9.25,9.25,0,0,1,.54-3.24,7.09,7.09,0,0,1,1.5-2.49,6.61,6.61,0,0,1,2.29-1.61,7.47,7.47,0,0,1,2.91-.56,7.57,7.57,0,0,1,2.93.56,6.43,6.43,0,0,1,2.29,1.61A7.38,7.38,0,0,1,421,51.19,9.49,9.49,0,0,1,421.51,54.43Zm-3.58,0a5.92,5.92,0,0,0-1-3.56,3.43,3.43,0,0,0-5.39,0,5.85,5.85,0,0,0-1,3.56,6,6,0,0,0,1,3.61A3.41,3.41,0,0,0,417,58,6.06,6.06,0,0,0,417.93,54.43Z"
            ></path>
            <path
              class="white"
              d="M436.13,60.46q0,3.6-1.83,5.28t-5.61,1.67a16,16,0,0,1-2.7-.23,15.71,15.71,0,0,1-2.37-.61l.63-3a11.33,11.33,0,0,0,2,.61,12.72,12.72,0,0,0,2.47.23,4.23,4.23,0,0,0,3-.87,3.42,3.42,0,0,0,.89-2.56v-.58a8.68,8.68,0,0,1-1.37.52,6.77,6.77,0,0,1-1.95.26,7.16,7.16,0,0,1-2.63-.46,5.54,5.54,0,0,1-2.05-1.36,6.16,6.16,0,0,1-1.33-2.23,9.48,9.48,0,0,1-.47-3.1,8.68,8.68,0,0,1,.5-3,6.56,6.56,0,0,1,1.47-2.36,6.65,6.65,0,0,1,2.35-1.53,8.39,8.39,0,0,1,3.15-.55,19.44,19.44,0,0,1,3.22.26c1,.17,1.89.36,2.6.55Zm-9.72-6.4a4.57,4.57,0,0,0,1,3.24,3.24,3.24,0,0,0,2.49,1,5.32,5.32,0,0,0,1.57-.23,4.81,4.81,0,0,0,1.2-.55V49.73c-.25,0-.56-.11-.92-.16a12.92,12.92,0,0,0-1.39-.07,3.52,3.52,0,0,0-2.91,1.26A5.1,5.1,0,0,0,426.41,54.06Z"
            ></path>
          </g>
        </g>
      </g>
      <g>
        <g>
          <path
            class="blue"
            d="M34.87,0A34.88,34.88,0,0,0,22.52,67.49l2.94-8.21a26.16,26.16,0,1,1,18.82,0l2.95,8.21A34.88,34.88,0,0,0,34.87,0"
          ></path>
          <path
            class="white"
            d="M28.41,51.07l2.95-8.22a8.72,8.72,0,1,1,7,0l3,8.22a17.44,17.44,0,1,0-12.93,0"
          ></path>
        </g>
        <g>
          <path
            class="blue"
            d="M204.48,26.19a14.32,14.32,0,0,1,1.51.08c.56.05,1.12.13,1.66.22l1.5.27a7,7,0,0,1,1,.25l-.87,4.42a17.9,17.9,0,0,0-2-.52,17.58,17.58,0,0,0-3.58-.3,13.21,13.21,0,0,0-2.81.3l-1.83.41V55.19H194V28a33.62,33.62,0,0,1,4.47-1.23,29,29,0,0,1,6-.57"
          ></path>
          <path
            class="blue"
            d="M222.29,26.08a14.76,14.76,0,0,1,5.17.79,8.09,8.09,0,0,1,5.21,5.68,16.41,16.41,0,0,1,.55,4.4V54.7l-1.83.3c-.78.13-1.67.25-2.65.36s-2.05.21-3.2.3-2.28.13-3.41.13a18.53,18.53,0,0,1-4.42-.49,9.91,9.91,0,0,1-3.5-1.56,7.05,7.05,0,0,1-2.29-2.81,9.77,9.77,0,0,1-.82-4.2,8.09,8.09,0,0,1,1-4,7.56,7.56,0,0,1,2.6-2.73,12,12,0,0,1,3.82-1.53,20.77,20.77,0,0,1,4.59-.49c.51,0,1,0,1.58.08s1.07.13,1.56.22l1.28.25.77.16V37.22a11.42,11.42,0,0,0-.27-2.48,5.75,5.75,0,0,0-1-2.19A4.91,4.91,0,0,0,225.05,31a7.62,7.62,0,0,0-3.19-.57,24.67,24.67,0,0,0-4.4.35,15.92,15.92,0,0,0-2.81.74l-.6-4.21a15.43,15.43,0,0,1,3.27-.84,27.69,27.69,0,0,1,5-.41m.44,25.45c1.2,0,2.27,0,3.2-.08a13,13,0,0,0,2.32-.3V42.68a6.82,6.82,0,0,0-1.78-.46,19.39,19.39,0,0,0-3-.19,18.92,18.92,0,0,0-2.43.16,7.64,7.64,0,0,0-2.35.68,5.07,5.07,0,0,0-1.78,1.42,3.79,3.79,0,0,0-.71,2.38,4.08,4.08,0,0,0,1.75,3.8,9.09,9.09,0,0,0,4.75,1.06"
          ></path>
          <path
            class="blue"
            d="M257.11,12.24h5.08V55.19a95.59,95.59,0,0,1-10.76.66,15.94,15.94,0,0,1-5.9-1,12.68,12.68,0,0,1-4.48-3,13.05,13.05,0,0,1-2.87-4.67,18,18,0,0,1-1-6.2,20,20,0,0,1,.85-6,13.44,13.44,0,0,1,2.48-4.7,11.36,11.36,0,0,1,4-3.06A13,13,0,0,1,250,26.13a13.17,13.17,0,0,1,4.35.66A13.55,13.55,0,0,1,257.11,28Zm0,20.56a10.61,10.61,0,0,0-2.68-1.48,10.11,10.11,0,0,0-3.82-.71,8.26,8.26,0,0,0-3.74.79,6.83,6.83,0,0,0-2.54,2.19,9.15,9.15,0,0,0-1.42,3.3,18.47,18.47,0,0,0-.44,4.1q0,5,2.46,7.67c1.64,1.81,3.86,2.43,6.59,2.43a54.27,54.27,0,0,0,5.59-.32Z"
          ></path>
          <path
            class="blue"
            d="M312.65,51.53a10,10,0,0,0,4.62-.82,2.76,2.76,0,0,0,1.5-2.62,3.47,3.47,0,0,0-1.48-3,23.1,23.1,0,0,0-4.86-2.46c-1.09-.43-2.14-.88-3.14-1.34a10.65,10.65,0,0,1-2.59-1.61A7,7,0,0,1,305,37.49a7.08,7.08,0,0,1-.66-3.22,7.23,7.23,0,0,1,2.79-6,11.86,11.86,0,0,1,7.59-2.21,21.44,21.44,0,0,1,2.4.13c.81.1,1.55.2,2.24.33s1.31.27,1.83.41.94.27,1.23.38l-.93,4.37a12.83,12.83,0,0,0-2.56-.9,16.61,16.61,0,0,0-4.21-.46,7.78,7.78,0,0,0-3.71.84,2.81,2.81,0,0,0-1.59,2.65,3.57,3.57,0,0,0,.36,1.64,3.75,3.75,0,0,0,1.09,1.29,9.11,9.11,0,0,0,1.83,1.06c.73.33,1.6.68,2.62,1,1.35.51,2.55,1,3.61,1.5a11.57,11.57,0,0,1,2.7,1.72,6.59,6.59,0,0,1,1.72,2.38,8.64,8.64,0,0,1,.6,3.41,6.78,6.78,0,0,1-2.92,6c-2,1.34-4.72,2-8.33,2a21.73,21.73,0,0,1-5.9-.63,30.21,30.21,0,0,1-2.89-1l.92-4.37c.59.22,1.51.55,2.79,1a16.29,16.29,0,0,0,5.08.65"
          ></path>
          <path
            class="blue"
            d="M299.74,55.19l-11.31.6a12.58,12.58,0,0,1-5.62-.95,8.75,8.75,0,0,1-3.58-2.68A10.49,10.49,0,0,1,277.34,48a24.26,24.26,0,0,1-.54-5.3v-16h5.08V41.65a24.78,24.78,0,0,0,.35,4.47,7.62,7.62,0,0,0,1.18,3,4.59,4.59,0,0,0,2.18,1.66,10.17,10.17,0,0,0,3.77.16c3.15-.23,3.88-.32,5.3-.42V26.79h5.08Z"
          ></path>
          <rect
            class="blue"
            x="266.95"
            y="26.78"
            width="5.08"
            height="28.41"
          ></rect>
          <path
            class="blue"
            d="M272.77,15.52a3.28,3.28,0,1,1-3.28-3.28,3.28,3.28,0,0,1,3.28,3.28"
          ></path>
          <path
            class="white"
            d="M151.65,26.79a106.1,106.1,0,0,0-10.65-.6,15,15,0,0,0-5.79,1.06,12.46,12.46,0,0,0-4.34,2.95,12.64,12.64,0,0,0-2.71,4.48,16.8,16.8,0,0,0-.93,5.71,30,30,0,0,0,1,8.08,12.06,12.06,0,0,0,2.68,4.29,10.25,10.25,0,0,0,4,2.54,14,14,0,0,0,4.83.82,13.08,13.08,0,0,0,4.4-.68,14.32,14.32,0,0,0,2.54-1.12v1.2c0,2.62-.67,4.54-2,5.74s-3.5,1.8-6.52,1.8c-.7,0-5.5,0-7,0v4.39c1.49,0,6.21,0,6.91,0q6.87,0,10.27-3t3.38-9.5Zm-7.71,24.39a11.61,11.61,0,0,1-3.72.57,7.9,7.9,0,0,1-2.87-.54,6.61,6.61,0,0,1-2.45-1.7,8.35,8.35,0,0,1-1.7-2.89,27.53,27.53,0,0,1-.67-6.18,10.82,10.82,0,0,1,2.21-7.1,7.74,7.74,0,0,1,6.31-2.67,24.29,24.29,0,0,1,3.47.19,16.28,16.28,0,0,1,2,.41l0,18.57a9.08,9.08,0,0,1-2.67,1.34"
          ></path>
          <path
            class="white"
            d="M123.86,41a17.86,17.86,0,0,1-1,6.12,13.9,13.9,0,0,1-2.76,4.7,12.08,12.08,0,0,1-4.23,3,14.06,14.06,0,0,1-10.71,0,12.18,12.18,0,0,1-4.23-3,14.24,14.24,0,0,1-2.76-4.7,18.1,18.1,0,0,1-1-6.12,18.18,18.18,0,0,1,1-6.09,14.08,14.08,0,0,1,2.76-4.73,12.18,12.18,0,0,1,4.23-3,14.06,14.06,0,0,1,10.71,0,12.08,12.08,0,0,1,4.23,3,13.76,13.76,0,0,1,2.76,4.73,17.93,17.93,0,0,1,1,6.09m-5.3,0a12.23,12.23,0,0,0-2.16-7.62,7.54,7.54,0,0,0-11.74,0A12.23,12.23,0,0,0,102.5,41a12.23,12.23,0,0,0,2.16,7.62,7.54,7.54,0,0,0,11.74,0A12.23,12.23,0,0,0,118.56,41"
          ></path>
          <path
            class="white"
            d="M166.29,26.79l11.31-.6a12.58,12.58,0,0,1,5.62.95,8.75,8.75,0,0,1,3.58,2.68,10.49,10.49,0,0,1,1.89,4.12,24.26,24.26,0,0,1,.54,5.3V55.19h-5.08V40.33a24.78,24.78,0,0,0-.35-4.47,7.56,7.56,0,0,0-1.18-3,4.67,4.67,0,0,0-2.18-1.67A9.22,9.22,0,0,0,177,31l-5.62.29v23.9h-5.08Z"
          ></path>
          <path
            class="white"
            d="M93.33,55.74c-.26-.15-6.26-3.8-6.26-9V12.24h5.08V46.75c0,3,4.21,5.64,4.25,5.68Z"
          ></path>
          <rect
            class="white"
            x="156.44"
            y="26.79"
            width="5.08"
            height="28.41"
          ></rect>
          <path
            class="white"
            d="M162.26,15.52A3.28,3.28,0,1,1,159,12.24a3.28,3.28,0,0,1,3.28,3.28"
          ></path>
          <path
            class="blue"
            d="M328.58,49a2.88,2.88,0,1,1-2.88,2.87A2.88,2.88,0,0,1,328.58,49m0-.4a3.28,3.28,0,1,0,3.28,3.27,3.27,3.27,0,0,0-3.28-3.27"
          ></path>
          <path
            class="blue"
            d="M329.11,52.1l.2.25c.08.11.16.22.24.35s.17.26.25.4.15.27.21.4h-.51l-.21-.37c-.08-.13-.15-.25-.23-.36l-.23-.32c-.08-.1-.14-.19-.21-.26h-.68V53.5h-.47V50.2a2.89,2.89,0,0,1,.45-.06l.44,0a1.83,1.83,0,0,1,1.08.27,1,1,0,0,1,.19,1.36,1,1,0,0,1-.52.35m-.71-1.57h-.46v1.27h.34a2.81,2.81,0,0,0,.43,0,1,1,0,0,0,.33-.09.52.52,0,0,0,.2-.19.62.62,0,0,0,.07-.33.59.59,0,0,0-.07-.31.61.61,0,0,0-.19-.2.91.91,0,0,0-.29-.1,2,2,0,0,0-.36,0"
          ></path>
        </g>
      </g>
    </g>
  </g>
</svg>
